<svg width="70" height="72" viewBox="0 0 70 72" fill="none" xmlns="http://www.w3.org/2000/svg">
<ellipse cx="35" cy="35.614" rx="35" ry="35.614" fill="#F6A114"/>
<path d="M22.9838 48.9598C23.3099 48.9598 23.636 48.8376 23.8935 48.5758L47.9233 24.1382C48.421 23.632 48.421 22.7942 47.9233 22.288C47.4255 21.7818 46.6016 21.7818 46.1039 22.288L22.0741 46.7255C21.5763 47.2317 21.5763 48.0696 22.0741 48.5758C22.3316 48.8376 22.6577 48.9598 22.9838 48.9598Z" fill="#1E1E1E"/>
<path d="M47.0135 42.4491C47.7172 42.4491 48.3008 41.8556 48.3008 41.1399V23.2132C48.3008 22.4975 47.7172 21.9041 47.0135 21.9041H29.3859C28.6822 21.9041 28.0986 22.4975 28.0986 23.2132C28.0986 23.9289 28.6822 24.5224 29.3859 24.5224H45.7262V41.1399C45.7262 41.8556 46.3097 42.4491 47.0135 42.4491Z" fill="#1E1E1E"/>
</svg>
