<svg width="20" height="22" viewBox="0 0 20 22" fill="none" xmlns="http://www.w3.org/2000/svg">
<path d="M0.964674 21.4789C1.20988 21.4789 1.45508 21.3819 1.64866 21.174L19.7162 1.77366C20.0904 1.3718 20.0904 0.706646 19.7162 0.304781C19.3419 -0.0970829 18.7224 -0.0970829 18.3482 0.304781L0.280691 19.7051C-0.0935631 20.107 -0.0935631 20.7721 0.280691 21.174C0.474272 21.3819 0.719473 21.4789 0.964674 21.4789Z" fill="#F6A114"/>
<path d="M19.0321 16.3101C19.5612 16.3101 20 15.839 20 15.2708V1.0393C20 0.471151 19.5612 0 19.0321 0H5.77829C5.24918 0 4.81039 0.471151 4.81039 1.0393C4.81039 1.60746 5.24918 2.07861 5.77829 2.07861H18.0642V15.2708C18.0642 15.839 18.503 16.3101 19.0321 16.3101Z" fill="#F6A114"/>
</svg>
