<svg width="100" height="101" viewBox="0 0 100 101" fill="none" xmlns="http://www.w3.org/2000/svg">
<ellipse cx="50.1205" cy="50.5957" rx="49.1379" ry="50" fill="#F6A114"/>
<path d="M33.2497 69.3324C33.7075 69.3324 34.1654 69.1608 34.5268 68.7932L68.2632 34.4843C68.962 33.7736 68.962 32.5973 68.2632 31.8867C67.5644 31.176 66.4077 31.176 65.7089 31.8867L31.9725 66.1955C31.2737 66.9062 31.2737 68.0825 31.9725 68.7932C32.334 69.1608 32.7918 69.3324 33.2497 69.3324Z" fill="#1E1E1E"/>
<path d="M66.9859 60.1916C67.9739 60.1916 68.7932 59.3584 68.7932 58.3537V33.1856C68.7932 32.1809 67.9739 31.3477 66.9859 31.3477H42.2379C41.2499 31.3477 40.4305 32.1809 40.4305 33.1856C40.4305 34.1904 41.2499 35.0236 42.2379 35.0236H65.1786V58.3537C65.1786 59.3584 65.9979 60.1916 66.9859 60.1916Z" fill="#1E1E1E"/>
</svg>
