<svg width="93" height="27" viewBox="0 0 93 27" fill="none" xmlns="http://www.w3.org/2000/svg">
<path d="M24.0334 13.671V26.7793H26.127H28.2205V13.671V0.562723H26.127H24.0334V13.671Z" fill="white"/>
<path d="M77.7134 13.671V26.7793H79.8606H82.0078V21.2792C82.0078 16.1001 82.0185 15.7362 82.2225 15.1049C82.7056 13.5533 83.908 12.6544 85.5829 12.5688C86.3881 12.5367 86.5169 12.5581 87.0537 12.8364C87.5261 13.0825 87.6871 13.2323 87.9126 13.671L88.181 14.1953L88.2132 20.3803L88.2454 26.5653H90.3818H92.529V21.1829C92.529 18.1332 92.4861 15.4152 92.4217 14.9016C92.1103 12.4297 91.3266 10.9102 89.7914 9.81878C88.9218 9.19814 88.2991 8.95203 87.1181 8.78082C85.4003 8.5347 83.5108 8.95203 82.3621 9.82948L82.0078 10.097V5.33521V0.562723H79.8606H77.7134V13.671Z" fill="white"/>
<path d="M9.32512 1.73988C4.52613 2.75644 1.0262 6.55517 0.135111 11.6915C-0.10108 13.0398 -0.0151925 15.8219 0.296151 17.1488C1.28386 21.4077 4.11816 24.6821 8.0368 26.0838C12.3205 27.6033 17.4093 26.4905 20.5764 23.3445C20.9951 22.9164 21.3494 22.5419 21.3494 22.5098C21.3494 22.467 20.7482 21.8464 20.0074 21.108L18.6654 19.7812L18.2682 20.1557C17.0872 21.2793 15.7989 22.0069 14.3174 22.4135C13.6303 22.5954 13.1579 22.6489 11.9554 22.6489C10.549 22.6489 10.3987 22.6275 9.50763 22.3172C7.78987 21.718 6.53376 20.7656 5.58899 19.3424C4.52613 17.7587 4.06448 16.175 4.06448 14.067C4.06448 12.1944 4.28994 11.1457 4.98778 9.73326C5.96475 7.77504 7.53221 6.41606 9.62573 5.72052C10.3558 5.4744 10.6349 5.4423 12.0628 5.4423C13.4692 5.4316 13.7806 5.4637 14.4784 5.67771C15.9492 6.13784 16.9799 6.74778 18.193 7.87135L18.8372 8.47058L20.2329 7.0795L21.6178 5.69911L21.0273 5.15338C19.4277 3.6981 17.5059 2.54243 15.8848 2.0609C13.9631 1.49376 11.118 1.35465 9.32512 1.73988Z" fill="white"/>
<path d="M51.4102 5.80604V9.01623H49.8535H48.2968V11.0494V13.0825H49.8535H51.4102V19.9309V26.7793H53.5574H55.7046V19.9309V13.0825H57.2613H58.818V11.0494V9.01623H57.2613H55.7046V5.80604V2.59585H53.5574H51.4102V5.80604Z" fill="white"/>
<path d="M66.9774 8.84482C64.9591 9.21934 63.3487 10.054 62.0174 11.4451C58.7644 14.8586 58.7537 20.4122 61.9852 23.9755C63.6493 25.7946 66.6661 26.9503 69.2213 26.7363C71.2504 26.5651 72.8393 25.9337 74.6537 24.5855L75.6629 23.8364L74.192 22.3704L72.7319 20.8937L72.3991 21.2041C71.1752 22.3704 69.1568 22.9376 67.4928 22.5951C64.272 21.921 62.6616 18.1116 64.2612 14.9656C65.3456 12.8362 68.3839 11.9373 70.8746 12.9967C71.1752 13.1251 71.7335 13.4889 72.0878 13.7885L72.7427 14.3449L74.1813 13.0181C74.9758 12.2904 75.6092 11.6698 75.5984 11.627C75.5877 11.5949 75.1261 11.2311 74.5785 10.8137C73.3976 9.92558 72.1737 9.31565 70.9927 9.01603C69.8976 8.72711 68.051 8.65221 66.9774 8.84482Z" fill="white"/>
<path d="M31.4413 14.4629C31.4413 20.3482 31.495 21.0224 32.0318 22.4562C32.7725 24.4252 34.4903 26.0089 36.455 26.5118C38.5807 27.0682 41.3184 26.6402 42.7678 25.538L43.1435 25.2598V26.0196V26.7793H45.237H47.3306V17.8978V9.01623H45.2478H43.1543L43.122 14.2274C43.0684 20.0272 43.0684 20.0807 42.3276 21.1722C41.7586 22.0175 40.9426 22.5097 39.7187 22.7773C38.7954 22.9699 38.3767 22.9699 37.6789 22.7559C36.8952 22.5311 36.2725 21.8891 35.9504 20.9902C35.6927 20.3054 35.6927 20.2626 35.6498 14.6555L35.6176 9.01623H33.5241H31.4413V14.4629Z" fill="white"/>
<path d="M67.3532 15.0616C66.226 15.5217 65.5711 16.5061 65.5711 17.7367C65.5711 19.4167 66.7735 20.6045 68.4805 20.6045C71.1216 20.6045 72.367 17.3729 70.4023 15.6073C69.479 14.7726 68.4913 14.6014 67.3532 15.0616Z" fill="#F6A114"/>
</svg>
