<svg width="93" height="27" viewBox="0 0 93 27" fill="none" xmlns="http://www.w3.org/2000/svg">
<path d="M24.3076 13.5226V26.6309H26.4011H28.4947V13.5226V0.414286H26.4011H24.3076V13.5226Z" fill="#1E1E1E"/>
<path d="M77.9863 13.5226V26.6309H80.1335H82.2807V21.1307C82.2807 15.9516 82.2915 15.5878 82.4954 14.9565C82.9786 13.4049 84.181 12.506 85.8558 12.4204C86.661 12.3883 86.7898 12.4097 87.3266 12.6879C87.799 12.934 87.9601 13.0838 88.1855 13.5226L88.4539 14.0469L88.4861 20.2319L88.5183 26.4168H90.6548H92.802V21.0344C92.802 17.9847 92.759 15.2668 92.6946 14.7531C92.3833 12.2813 91.5996 10.7618 90.0643 9.67034C89.1947 9.0497 88.572 8.80359 87.3911 8.63238C85.6733 8.38626 83.7838 8.80359 82.635 9.68104L82.2807 9.94856V5.18677V0.414286H80.1335H77.9863V13.5226Z" fill="#1E1E1E"/>
<path d="M9.59856 1.59144C4.79957 2.608 1.29964 6.40673 0.408549 11.543C0.172357 12.8913 0.258245 15.6735 0.569589 17.0004C1.5573 21.2592 4.3916 24.5336 8.31024 25.9354C12.5939 27.4549 17.6828 26.342 20.8499 23.196C21.2686 22.768 21.6229 22.3935 21.6229 22.3614C21.6229 22.3186 21.0217 21.6979 20.2809 20.9596L18.9389 19.6327L18.5416 20.0072C17.3607 21.1308 16.0724 21.8585 14.5908 22.2651C13.9037 22.447 13.4313 22.5005 12.2289 22.5005C10.8225 22.5005 10.6722 22.4791 9.78107 22.1688C8.06331 21.5695 6.8072 20.6172 5.86243 19.194C4.79957 17.6103 4.33792 16.0266 4.33792 13.9186C4.33792 12.046 4.56338 10.9973 5.26122 9.58482C6.23819 7.6266 7.80565 6.26762 9.89917 5.57208C10.6292 5.32596 10.9083 5.29386 12.3362 5.29386C13.7426 5.28316 14.054 5.31526 14.7518 5.52928C16.2227 5.9894 17.2533 6.59934 18.4665 7.72291L19.1106 8.32214L20.5063 6.93106L21.8913 5.55068L21.3008 5.00494C19.7011 3.54966 17.7794 2.39399 16.1582 1.91246C14.2365 1.34532 11.3915 1.20622 9.59856 1.59144Z" fill="#1E1E1E"/>
<path d="M51.6837 5.6576V8.86779H50.127H48.5703V10.9009V12.934H50.127H51.6837V19.7824V26.6309H53.8309H55.9781V19.7824V12.934H57.5349H59.0916V10.9009V8.86779H57.5349H55.9781V5.6576V2.44741H53.8309H51.6837V5.6576Z" fill="#1E1E1E"/>
<path d="M67.2506 8.69638C65.2323 9.0709 63.6219 9.90555 62.2906 11.2966C59.0376 14.7101 59.0269 20.2638 62.2584 23.8271C63.9225 25.6462 66.9393 26.8019 69.4945 26.5879C71.5236 26.4166 73.1125 25.7853 74.9269 24.437L75.9361 23.688L74.4652 22.222L73.0051 20.7453L72.6723 21.0556C71.4484 22.222 69.43 22.7891 67.766 22.4467C64.5452 21.7726 62.9348 17.9631 64.5344 14.8171C65.6188 12.6877 68.657 11.7889 71.1478 12.8482C71.4484 12.9766 72.0067 13.3405 72.361 13.6401L73.0159 14.1965L74.4545 12.8696C75.2489 12.142 75.8824 11.5214 75.8716 11.4785C75.8609 11.4464 75.3993 11.0826 74.8517 10.6653C73.6708 9.77715 72.4469 9.16721 71.2659 8.86759C70.1708 8.57867 68.3242 8.50377 67.2506 8.69638Z" fill="#1E1E1E"/>
<path d="M31.7148 14.3144C31.7148 20.1998 31.7685 20.8739 32.3053 22.3078C33.0461 24.2767 34.7639 25.8604 36.7286 26.3633C38.8543 26.9198 41.592 26.4918 43.0413 25.3896L43.4171 25.1114V25.8711V26.6309H45.5106H47.6041V17.7493V8.86779H45.5213H43.4278L43.3956 14.079C43.3419 19.8788 43.3419 19.9323 42.6011 21.0237C42.0321 21.8691 41.2162 22.3613 39.9923 22.6288C39.069 22.8214 38.6503 22.8214 37.9525 22.6074C37.1687 22.3827 36.546 21.7407 36.224 20.8418C35.9663 20.157 35.9663 20.1142 35.9234 14.507L35.8911 8.86779H33.7976H31.7148V14.3144Z" fill="#1E1E1E"/>
<path d="M67.6269 14.9131C66.4996 15.3732 65.8447 16.3577 65.8447 17.5883C65.8447 19.2683 67.0472 20.4561 68.7542 20.4561C71.3952 20.4561 72.6406 17.2245 70.6759 15.4589C69.7526 14.6242 68.7649 14.453 67.6269 14.9131Z" fill="#F6A114"/>
</svg>
