<svg width="17" height="18" viewBox="0 0 17 18" fill="none" xmlns="http://www.w3.org/2000/svg">
<circle cx="8.5" cy="8.89209" r="8.5" fill="#0F172A"/>
<path d="M8.49989 4.39209C8.40498 4.39209 8.31397 4.42979 8.24686 4.4969C8.17975 4.56401 8.14205 4.65502 8.14205 4.74993V11.7585L6.60621 10.2227C6.53872 10.1575 6.44833 10.1215 6.3545 10.1223C6.26068 10.1231 6.17093 10.1607 6.10458 10.2271C6.03824 10.2934 6.00061 10.3832 5.99979 10.477C5.99897 10.5708 6.03504 10.6612 6.10023 10.7287L8.24725 12.8757C8.28017 12.9088 8.31931 12.9351 8.36243 12.953C8.40554 12.971 8.45177 12.9802 8.49846 12.9802H8.49989C8.54641 12.9802 8.59293 12.9709 8.63658 12.9523C8.67996 12.9345 8.71937 12.9082 8.75252 12.875L10.8996 10.728C10.9647 10.6605 11.0008 10.5701 11 10.4763C10.9992 10.3824 10.9615 10.2927 10.8952 10.2263C10.8288 10.16 10.7391 10.1224 10.6453 10.1216C10.5514 10.1207 10.4611 10.1568 10.3936 10.222L8.85773 11.7585V4.74993C8.85773 4.65502 8.82003 4.56401 8.75292 4.4969C8.68581 4.42979 8.59479 4.39209 8.49989 4.39209Z" fill="white"/>
</svg>
