<svg width="36" height="36" viewBox="0 0 36 36" fill="none" xmlns="http://www.w3.org/2000/svg">
<path d="M30.75 15.285H26.415C22.86 15.285 19.965 12.39 19.965 8.835V4.5C19.965 3.675 19.29 3 18.465 3H12.105C7.485 3 3.75 6 3.75 11.355V24.645C3.75 30 7.485 33 12.105 33H23.895C28.515 33 32.25 30 32.25 24.645V16.785C32.25 15.96 31.575 15.285 30.75 15.285ZM18.42 23.67L15.42 26.67C15.315 26.775 15.18 26.865 15.045 26.91C14.91 26.97 14.775 27 14.625 27C14.475 27 14.34 26.97 14.205 26.91C14.085 26.865 13.965 26.775 13.875 26.685C13.86 26.67 13.845 26.67 13.845 26.655L10.845 23.655C10.41 23.22 10.41 22.5 10.845 22.065C11.28 21.63 12 21.63 12.435 22.065L13.5 23.16V16.875C13.5 16.26 14.01 15.75 14.625 15.75C15.24 15.75 15.75 16.26 15.75 16.875V23.16L16.83 22.08C17.265 21.645 17.985 21.645 18.42 22.08C18.855 22.515 18.855 23.235 18.42 23.67Z" fill="#F0F0F0"/>
<path d="M26.1445 13.2147C27.5695 13.2297 29.5495 13.2297 31.2445 13.2297C32.0995 13.2297 32.5495 12.2247 31.9495 11.6247C29.7895 9.44975 25.9195 5.53475 23.6995 3.31475C23.0845 2.69975 22.0195 3.11975 22.0195 3.97475V9.20974C22.0195 11.3997 23.8795 13.2147 26.1445 13.2147Z" fill="#F0F0F0"/>
</svg>
