<svg width="17" height="18" viewBox="0 0 17 18" fill="none" xmlns="http://www.w3.org/2000/svg">
<circle cx="8.5" cy="9" r="8.5" fill="white"/>
<path d="M8.49989 4.5C8.40498 4.5 8.31397 4.5377 8.24686 4.60481C8.17975 4.67192 8.14205 4.76293 8.14205 4.85784V11.8665L6.60621 10.3306C6.53872 10.2654 6.44833 10.2294 6.3545 10.2302C6.26068 10.231 6.17093 10.2686 6.10458 10.335C6.03824 10.4013 6.00061 10.4911 5.99979 10.5849C5.99897 10.6787 6.03504 10.7691 6.10023 10.8366L8.24725 12.9836C8.28017 13.0167 8.31931 13.043 8.36243 13.0609C8.40554 13.0789 8.45177 13.0881 8.49846 13.0881H8.49989C8.54641 13.0881 8.59293 13.0788 8.63658 13.0602C8.67996 13.0424 8.71937 13.0161 8.75252 12.9829L10.8996 10.8359C10.9647 10.7684 11.0008 10.678 11 10.5842C10.9992 10.4904 10.9615 10.4006 10.8952 10.3343C10.8288 10.2679 10.7391 10.2303 10.6453 10.2295C10.5514 10.2286 10.4611 10.2647 10.3936 10.3299L8.85773 11.8665V4.85784C8.85773 4.76293 8.82003 4.67192 8.75292 4.60481C8.68581 4.5377 8.59479 4.5 8.49989 4.5Z" fill="#0F172A"/>
</svg>
