<svg width="82" height="82" viewBox="0 0 82 82" fill="none" xmlns="http://www.w3.org/2000/svg">
<path d="M40.6518 81.3862C61.7169 81.3862 78.7935 64.469 78.7935 43.6006C78.7935 22.7321 61.7169 5.81494 40.6518 5.81494C19.5867 5.81494 2.51006 22.7321 2.51006 43.6006C2.51006 64.469 19.5867 81.3862 40.6518 81.3862Z" stroke="white" stroke-width="1.10447" stroke-miterlimit="10"/>
<path d="M51.892 7.58777C47.2934 3.12769 42.0093 -2.61717 35.9018 2.89985C34.118 4.51139 32.5541 6.5875 31.255 8.23905C27.058 13.5783 23.2885 19.2487 19.9969 25.1791C17.7924 29.1502 15.8044 33.2402 14.0408 37.4224" stroke="white" stroke-width="1.10447" stroke-miterlimit="10"/>
<path d="M22.2104 34.4558L14.0251 37.4222L11.0308 29.3145" stroke="white" stroke-width="1.10447" stroke-miterlimit="10"/>
<path d="M2.9532 49.3823C0.983172 55.4517 -1.9124 63.0738 5.79941 66.0179C8.05215 66.8781 10.6257 67.3349 12.6979 67.7472C19.3955 69.0776 26.2008 69.8811 33.0275 70.1456C37.5991 70.3224 42.1798 70.2557 46.7447 69.9467" stroke="white" stroke-width="1.10447" stroke-miterlimit="10"/>
<path d="M40.4139 64.0342L46.7525 69.9591L40.7718 76.2385" stroke="white" stroke-width="1.10447" stroke-miterlimit="10"/>
<path d="M69.5828 67.2496C75.6444 65.1068 83.1711 62.9151 80.8387 55.0597C80.1577 52.7658 78.9584 50.4629 78.0272 48.5835C75.0195 42.5075 71.5237 36.6681 67.5825 31.14C66.1207 29.0894 64.5972 27.0822 63.0153 25.1206" stroke="white" stroke-width="1.10447" stroke-miterlimit="10"/>
<path d="M61.5905 33.567L63.0894 25.0625L71.674 26.5473" stroke="white" stroke-width="1.10447" stroke-miterlimit="10"/>
<path d="M40.6518 81.3741C47.8763 81.3741 53.7329 64.4594 53.7329 43.594C53.7329 22.7287 47.8763 5.81396 40.6518 5.81396C33.4272 5.81396 27.5706 22.7287 27.5706 43.594C27.5706 64.4594 33.4272 81.3741 40.6518 81.3741Z" stroke="white" stroke-width="1.10447" stroke-miterlimit="10"/>
<path d="M66.5885 68.0649C62.6518 68.9807 56.7597 69.6787 49.8332 70.0166" stroke="white" stroke-width="1.10447" stroke-miterlimit="10"/>
<path d="M71.0065 66.4844C70.1449 67.0567 68.6292 67.5902 66.5885 68.0648" stroke="white" stroke-width="1.10447" stroke-miterlimit="10"/>
<path d="M9.00574 22.6338C12.2603 20.4632 25.2012 18.8428 40.6697 18.8428C56.3525 18.8428 69.437 20.5088 72.4627 22.7249" stroke="white" stroke-width="1.10447" stroke-miterlimit="10"/>
<path d="M78.7969 42.4048C78.7969 44.7387 61.7555 46.6304 40.7337 46.6304C19.7119 46.6304 2.528 44.7387 2.528 42.4048" stroke="white" stroke-width="1.10447" stroke-miterlimit="10"/>
</svg>
