<svg width="37" height="37" viewBox="0 0 37 37" fill="none" xmlns="http://www.w3.org/2000/svg">
<path d="M36.6709 18.8495C34.3068 18.8495 31.9658 19.3151 29.7816 20.2199C27.5975 21.1246 25.613 22.4507 23.9415 24.1224C22.27 25.7941 20.9442 27.7787 20.0399 29.9628C19.1355 32.1468 18.6703 34.4877 18.6709 36.8516C18.6714 34.4877 18.2063 32.1468 17.3019 29.9628C16.3976 27.7787 15.0718 25.7941 13.4003 24.1224C11.7288 22.4507 9.74431 21.1246 7.56017 20.2199C5.37604 19.3151 3.03505 18.8495 0.670898 18.8495C5.4448 18.8495 10.0232 16.9533 13.3988 13.578C16.7745 10.2027 18.6709 5.6249 18.6709 0.851562C18.6709 3.21508 19.1365 5.55546 20.0411 7.73906C20.9456 9.92267 22.2715 11.9067 23.943 13.578C25.6144 15.2493 27.5987 16.575 29.7826 17.4795C31.9665 18.3839 34.3071 18.8495 36.6709 18.8495Z" fill="#F6A114"/>
</svg>
