<svg width="80" height="93" viewBox="0 0 80 93" fill="none" xmlns="http://www.w3.org/2000/svg">
<path d="M78.5 23.9141L40 46.4141M78.5 23.9141V41.9141L71.1071 46.4141M78.5 23.9141L63 14.4141L55.5 18.9141M40 46.4141V91.9141M40 46.4141L1 23.9141M40 91.9141L55.5 82.4141V73.4141M40 91.9141L24.5 82.4141V73.4141M55.5 55.9141L71.1071 46.4141M55.5 55.9141L63 60.4141M55.5 55.9141V73.4141M71.1071 46.4141L78.5 51.4141M78.5 51.4141V69.4141L63 78.4141M78.5 51.4141L63 60.4141M63 78.4141V60.4141M63 78.4141L55.5 73.4141M40 28.4141V18.9141M40 28.4141L55.5 18.9141M40 28.4141L25 18.9141M40 18.9141L55.5 9.91406M40 18.9141L25 9.91406M55.5 9.91406V18.9141M55.5 9.91406L40 1.41406L25 9.91406M25 9.91406V18.9141M25 18.9141L17 14.4141L1 23.9141M1 23.9141V41.9141L8.55357 46.4141M24.5 55.9141V73.4141M24.5 55.9141L16.5 60.4141M24.5 55.9141L8.55357 46.4141M24.5 73.4141L16.5 78.4141M16.5 78.4141V60.4141M16.5 78.4141L1 69.4141V51.4141M16.5 60.4141L1 51.4141M1 51.4141L8.55357 46.4141" stroke="#F0F0F0" stroke-width="2" stroke-linejoin="round"/>
</svg>
