<svg width="36" height="36" viewBox="0 0 36 36" fill="none" xmlns="http://www.w3.org/2000/svg">
<rect width="36" height="36" rx="18" fill="#002EAE"/>
<path d="M25.8637 25.2057L22.2282 21.5702C23.344 20.2979 23.9597 18.6879 23.9597 16.9798C23.9597 15.1154 23.2335 13.3627 21.9153 12.0444C20.597 10.7262 18.8443 10 16.9798 10C15.1154 10 13.3627 10.7262 12.0444 12.0444C10.7262 13.3627 10 15.1154 10 16.9798C10 18.8443 10.7262 20.597 12.0444 21.9153C13.3627 23.2335 15.1154 23.9597 16.9798 23.9597C18.6879 23.9597 20.2979 23.344 21.5702 22.2282L25.2057 25.8637C25.2966 25.9546 25.4156 26 25.5347 26C25.6537 26 25.7728 25.9546 25.8637 25.8637C26.0454 25.6819 26.0454 25.3874 25.8637 25.2057ZM12.7024 21.2573C11.56 20.1146 10.9306 18.5955 10.9306 16.9798C10.9306 15.3642 11.56 13.845 12.7024 12.7024C13.845 11.56 15.3642 10.9306 16.9798 10.9306C18.5955 10.9306 20.1146 11.56 21.2573 12.7024C22.3997 13.845 23.029 15.3642 23.029 16.9798C23.029 18.5955 22.3997 20.1146 21.2573 21.2573C20.1146 22.3997 18.5955 23.029 16.9798 23.029C15.3642 23.029 13.845 22.3997 12.7024 21.2573Z" fill="#F0F0F0"/>
</svg>
