<svg width="33" height="33" viewBox="0 0 33 33" fill="none" xmlns="http://www.w3.org/2000/svg">
<g clip-path="url(#clip0_466_1112)">
<path d="M30.5943 13.5599L4.7759 2.84687C3.68821 2.39549 2.45946 2.59405 1.56909 3.3648C0.678714 4.13568 0.306339 5.32337 0.597339 6.46449L3.13446 16.414L0.597339 26.3635C0.306339 27.5046 0.678651 28.6923 1.56903 29.4632C2.46109 30.2356 3.69015 30.4316 4.7759 29.9811L30.5943 19.2681C31.7698 18.7803 32.5 17.6867 32.5 16.414C32.5 15.1413 31.7698 14.0477 30.5943 13.5599ZM29.8756 17.5362L4.05728 28.2492C3.62309 28.4293 3.15178 28.3533 2.79634 28.0456C2.44096 27.7379 2.29815 27.2823 2.41428 26.8267L4.83046 17.3515H14.147C14.6648 17.3515 15.0846 16.9317 15.0846 16.4139C15.0846 15.8961 14.6648 15.4764 14.147 15.4764H4.83053L2.41428 6.00124C2.29815 5.54574 2.44096 5.09012 2.79634 4.78243C3.15171 4.47474 3.6229 4.39862 4.05721 4.57874L29.8756 15.2918C30.5709 15.5803 30.625 16.2237 30.625 16.414C30.625 16.6043 30.5709 17.2477 29.8756 17.5362Z" fill="#1E1E1E"/>
</g>
<defs>
<clipPath id="clip0_466_1112">
<rect width="32" height="32" fill="white" transform="translate(0.5 0.414062)"/>
</clipPath>
</defs>
</svg>
