<svg width="32" height="32" viewBox="0 0 32 32" fill="none" xmlns="http://www.w3.org/2000/svg">
<path fill-rule="evenodd" clip-rule="evenodd" d="M19.8202 17.8706C19.2145 18.1181 18.8277 19.0662 18.4352 19.5506C18.2339 19.7987 17.9939 19.8375 17.6845 19.7131C15.4114 18.8075 13.6689 17.2906 12.4145 15.1987C12.202 14.8744 12.2402 14.6181 12.4964 14.3169C12.8752 13.8706 13.3514 13.3637 13.4539 12.7625C13.6814 11.4325 11.9427 7.30688 9.64642 9.17625C3.03892 14.5606 20.6689 28.8413 23.8508 21.1175C24.7508 18.9281 20.8239 17.4594 19.8202 17.8706ZM16.0002 29.205C13.6633 29.205 11.3639 28.5837 9.35079 27.4075C9.02767 27.2181 8.63704 27.1681 8.27579 27.2663L3.90142 28.4669L5.42517 25.11C5.63267 24.6531 5.57954 24.1213 5.28642 23.715C3.65642 21.4556 2.79454 18.7881 2.79454 16C2.79454 8.71812 8.71829 2.79437 16.0002 2.79437C23.282 2.79437 29.2052 8.71812 29.2052 16C29.2052 23.2812 23.2814 29.205 16.0002 29.205ZM16.0002 0C7.17767 0 0.00016727 7.1775 0.00016727 16C0.00016727 19.1037 0.881417 22.0844 2.55579 24.6712L0.125167 30.0244C-0.0992077 30.5188 -0.0173327 31.0975 0.333917 31.5094C0.603917 31.825 0.994542 32 1.39767 32C2.29892 32 7.21329 30.4556 8.46392 30.1125C10.7758 31.3494 13.3689 32 16.0002 32C24.822 32 32.0002 24.8219 32.0002 16C32.0002 7.1775 24.822 0 16.0002 0Z" fill="#042FA6"/>
</svg>
