<svg width="33" height="33" viewBox="0 0 33 33" fill="none" xmlns="http://www.w3.org/2000/svg">
<path fill-rule="evenodd" clip-rule="evenodd" d="M20.3192 18.2847C19.7136 18.5322 19.3267 19.4803 18.9342 19.9647C18.7329 20.2128 18.4929 20.2516 18.1836 20.1272C15.9104 19.2216 14.1679 17.7047 12.9136 15.6128C12.7011 15.2884 12.7392 15.0322 12.9954 14.7309C13.3742 14.2847 13.8504 13.7778 13.9529 13.1766C14.1804 11.8466 12.4417 7.72094 10.1454 9.59031C3.53794 14.9747 21.1679 29.2553 24.3498 21.5316C25.2498 19.3422 21.3229 17.8734 20.3192 18.2847ZM16.4992 29.6191C14.1623 29.6191 11.8629 28.9978 9.84982 27.8216C9.52669 27.6322 9.13607 27.5822 8.77482 27.6803L4.40044 28.8809L5.92419 25.5241C6.13169 25.0672 6.07857 24.5353 5.78544 24.1291C4.15544 21.8697 3.29357 19.2022 3.29357 16.4141C3.29357 9.13219 9.21732 3.20844 16.4992 3.20844C23.7811 3.20844 29.7042 9.13219 29.7042 16.4141C29.7042 23.6953 23.7804 29.6191 16.4992 29.6191ZM16.4992 0.414062C7.67669 0.414062 0.499191 7.59156 0.499191 16.4141C0.499191 19.5178 1.38044 22.4984 3.05482 25.0853L0.624191 30.4384C0.399816 30.9328 0.481691 31.5116 0.832941 31.9234C1.10294 32.2391 1.49357 32.4141 1.89669 32.4141C2.79794 32.4141 7.71232 30.8697 8.96294 30.5266C11.2748 31.7634 13.8679 32.4141 16.4992 32.4141C25.3211 32.4141 32.4992 25.2359 32.4992 16.4141C32.4992 7.59156 25.3211 0.414062 16.4992 0.414062Z" fill="#0F172A"/>
</svg>
