<svg width="223" height="25" viewBox="0 0 223 25" fill="none" xmlns="http://www.w3.org/2000/svg">
<path d="M22.7699 15.2985C21.7486 15.2985 20.7374 15.4997 19.7939 15.8906C18.8504 16.2815 17.9931 16.8544 17.2711 17.5766C16.549 18.2988 15.9763 19.1562 15.5857 20.0998C15.195 21.0434 14.9941 22.0547 14.9943 23.0759C14.9946 22.0547 14.7936 21.0434 14.403 20.0998C14.0123 19.1562 13.4396 18.2988 12.7176 17.5766C11.9955 16.8544 11.1382 16.2815 10.1948 15.8906C9.25126 15.4997 8.24001 15.2985 7.21875 15.2985C9.28096 15.2985 11.2587 14.4793 12.7169 13.0211C14.1751 11.5629 14.9943 9.58516 14.9943 7.52295C14.9943 8.54405 15.1954 9.55516 15.5862 10.4985C15.977 11.4419 16.5497 12.2991 17.2717 13.0211C17.9938 13.7431 18.8509 14.3159 19.7943 14.7066C20.7377 15.0974 21.7488 15.2985 22.7699 15.2985Z" fill="#F6A114"/>
<path d="M14.9939 0.00182228C14.9301 3.93533 13.3219 7.68595 10.5167 10.444C7.71139 13.2021 3.93402 14.7464 0 14.7435C0.062912 10.8095 1.6707 7.05814 4.47613 4.29958C7.28155 1.54102 11.0595 -0.00335723 14.9939 5.47997e-06V0.00182228Z" fill="#002EAE"/>
<path d="M29.9998 14.7435C26.0653 14.7468 22.2874 13.2025 19.482 10.4439C16.6766 7.68534 15.0688 3.93398 15.0059 8.96658e-06C18.9406 -0.00429331 22.7191 1.53977 25.5247 4.29853C28.3303 7.05729 29.9378 10.8092 29.9998 14.7435Z" fill="#002EAE"/>
<g filter="url(#filter0_d_432_2148)">
<path d="M43.2933 19H39.6371L46.294 0.0909085H50.5227L57.1889 19H53.5327L48.4822 3.96875H48.3345L43.2933 19ZM43.4134 11.5859H53.3849V14.3374H43.4134V11.5859ZM58.7518 19V4.81818H61.9925V7.18182H62.1403C62.3988 6.36316 62.842 5.73224 63.4698 5.28906C64.1038 4.83973 64.8271 4.61506 65.6396 4.61506C65.8242 4.61506 66.0304 4.62429 66.2582 4.64275C66.4921 4.65507 66.686 4.67661 66.8399 4.70739V7.78196C66.6983 7.73272 66.4736 7.68963 66.1658 7.6527C65.8642 7.60961 65.5719 7.58807 65.2887 7.58807C64.6793 7.58807 64.1315 7.72041 63.6452 7.98508C63.1651 8.24361 62.7866 8.60369 62.5096 9.06534C62.2326 9.52699 62.0941 10.0594 62.0941 10.6626V19H58.7518ZM71.6227 10.6903V19H68.2804V0.0909085H71.5488V7.22798H71.715C72.0474 6.42779 72.5614 5.79687 73.2569 5.33523C73.9586 4.86742 74.8512 4.63352 75.9345 4.63352C76.9193 4.63352 77.778 4.83973 78.5105 5.25213C79.243 5.66454 79.8093 6.26776 80.2094 7.06179C80.6156 7.85582 80.8187 8.82528 80.8187 9.97017V19H77.4764V10.4872C77.4764 9.53314 77.2302 8.79143 76.7378 8.26207C76.2515 7.72656 75.5683 7.45881 74.688 7.45881C74.0971 7.45881 73.5678 7.58807 73.1 7.84659C72.6383 8.09896 72.2752 8.4652 72.0105 8.94531C71.752 9.42543 71.6227 10.0071 71.6227 10.6903ZM87.5267 19.2862C86.628 19.2862 85.8186 19.1262 85.0984 18.8061C84.3844 18.4799 83.8181 17.9998 83.3995 17.3658C82.9871 16.7318 82.7809 15.95 82.7809 15.0206C82.7809 14.2204 82.9286 13.5587 83.2241 13.0355C83.5196 12.5123 83.9227 12.0938 84.4336 11.7798C84.9445 11.4659 85.52 11.2289 86.1602 11.0689C86.8065 10.9027 87.4743 10.7827 88.1637 10.7088C88.9947 10.6226 89.6687 10.5457 90.1857 10.478C90.7028 10.4041 91.0783 10.2933 91.3122 10.1456C91.5522 9.99171 91.6723 9.75473 91.6723 9.43466V9.37926C91.6723 8.68371 91.466 8.14512 91.0536 7.76349C90.6412 7.38187 90.0473 7.19105 89.2717 7.19105C88.453 7.19105 87.8036 7.36955 87.3235 7.72656C86.8496 8.08357 86.5295 8.50521 86.3633 8.99148L83.2426 8.54829C83.4888 7.68655 83.895 6.96638 84.4613 6.38778C85.0276 5.80303 85.7201 5.366 86.5387 5.0767C87.3574 4.78125 88.2622 4.63352 89.2532 4.63352C89.9365 4.63352 90.6166 4.71354 91.2937 4.87358C91.9708 5.03362 92.5894 5.29829 93.1495 5.66761C93.7097 6.03078 94.159 6.52628 94.4975 7.15412C94.8422 7.78196 95.0146 8.56676 95.0146 9.50852V19H91.8015V17.0518H91.6907C91.4876 17.4458 91.2014 17.8151 90.8321 18.1598C90.4689 18.4983 90.0103 18.7723 89.4563 18.9815C88.9085 19.1847 88.2653 19.2862 87.5267 19.2862ZM88.3946 16.8303C89.0655 16.8303 89.6472 16.6979 90.1396 16.4332C90.632 16.1624 91.0106 15.8054 91.2752 15.3622C91.5461 14.919 91.6815 14.4358 91.6815 13.9126V12.2415C91.5768 12.3277 91.3983 12.4077 91.146 12.4815C90.8998 12.5554 90.6228 12.62 90.315 12.6754C90.0072 12.7308 89.7026 12.7801 89.4009 12.8232C89.0993 12.8662 88.8377 12.9032 88.6161 12.9339C88.1176 13.0017 87.6713 13.1125 87.2774 13.2663C86.8834 13.4202 86.5726 13.6357 86.3448 13.9126C86.1171 14.1835 86.0032 14.5343 86.0032 14.9652C86.0032 15.5807 86.2279 16.0455 86.6772 16.3594C87.1266 16.6733 87.699 16.8303 88.3946 16.8303ZM97.5954 19V4.81818H100.79V7.22798H100.956C101.252 6.41548 101.741 5.78149 102.424 5.32599C103.107 4.86435 103.923 4.63352 104.871 4.63352C105.831 4.63352 106.641 4.86742 107.299 5.33523C107.964 5.79687 108.432 6.42779 108.703 7.22798H108.85C109.164 6.4401 109.694 5.81226 110.438 5.34446C111.189 4.8705 112.079 4.63352 113.107 4.63352C114.412 4.63352 115.477 5.04593 116.301 5.87074C117.126 6.69555 117.539 7.89891 117.539 9.48082V19H114.187V9.99787C114.187 9.11766 113.953 8.47443 113.485 8.06818C113.017 7.65578 112.445 7.44957 111.768 7.44957C110.962 7.44957 110.331 7.70194 109.875 8.20668C109.426 8.70526 109.201 9.35464 109.201 10.1548V19H105.924V9.85938C105.924 9.12689 105.702 8.54214 105.259 8.10511C104.822 7.66809 104.249 7.44957 103.541 7.44957C103.061 7.44957 102.624 7.57268 102.23 7.81889C101.836 8.05895 101.522 8.40057 101.289 8.84375C101.055 9.28078 100.938 9.79167 100.938 10.3764V19H97.5954ZM125.135 2.96236V0.0909085H140.222V2.96236H134.378V19H130.98V2.96236H125.135ZM146.424 19.277C145.003 19.277 143.775 18.9815 142.74 18.3906C141.713 17.7936 140.922 16.9503 140.368 15.8608C139.814 14.7652 139.537 13.4756 139.537 11.9922C139.537 10.5334 139.814 9.25308 140.368 8.15128C140.928 7.04332 141.709 6.18158 142.713 5.56605C143.716 4.94437 144.895 4.63352 146.249 4.63352C147.123 4.63352 147.948 4.77509 148.723 5.05824C149.505 5.33523 150.195 5.7661 150.792 6.35085C151.395 6.93561 151.869 7.6804 152.213 8.58523C152.558 9.4839 152.731 10.5549 152.731 11.7983V12.8232H141.106V10.5703H149.527C149.521 9.93016 149.382 9.36079 149.111 8.86222C148.84 8.35748 148.462 7.96046 147.976 7.67116C147.495 7.38187 146.935 7.23722 146.295 7.23722C145.612 7.23722 145.012 7.40341 144.495 7.73579C143.978 8.06203 143.575 8.4929 143.285 9.02841C143.002 9.55776 142.857 10.1394 142.851 10.7734V12.7401C142.851 13.5649 143.002 14.2727 143.304 14.8636C143.605 15.4484 144.027 15.8977 144.569 16.2116C145.11 16.5194 145.744 16.6733 146.471 16.6733C146.957 16.6733 147.397 16.6056 147.791 16.4702C148.185 16.3286 148.526 16.1224 148.816 15.8516C149.105 15.5807 149.324 15.2453 149.471 14.8452L152.592 15.196C152.395 16.0208 152.02 16.741 151.466 17.3565C150.918 17.9659 150.216 18.4399 149.36 18.7784C148.505 19.1108 147.526 19.277 146.424 19.277ZM160.964 19.277C159.548 19.277 158.333 18.9661 157.317 18.3445C156.308 17.7228 155.529 16.8641 154.981 15.7685C154.44 14.6667 154.169 13.3987 154.169 11.9645C154.169 10.5241 154.446 9.25308 155 8.15128C155.554 7.04332 156.335 6.18158 157.345 5.56605C158.36 4.94437 159.561 4.63352 160.946 4.63352C162.097 4.63352 163.115 4.84588 164.002 5.2706C164.894 5.68916 165.605 6.28314 166.135 7.05256C166.664 7.81581 166.966 8.70833 167.039 9.73011H163.845C163.716 9.04687 163.408 8.47751 162.922 8.02202C162.441 7.56037 161.798 7.32954 160.992 7.32954C160.309 7.32954 159.709 7.5142 159.191 7.88352C158.674 8.24669 158.271 8.76989 157.982 9.45312C157.699 10.1364 157.557 10.955 157.557 11.9091C157.557 12.8755 157.699 13.7064 157.982 14.402C158.265 15.0914 158.662 15.6238 159.173 15.9993C159.69 16.3686 160.296 16.5533 160.992 16.5533C161.484 16.5533 161.924 16.4609 162.312 16.2763C162.706 16.0855 163.035 15.8116 163.3 15.4545C163.565 15.0975 163.746 14.6636 163.845 14.1527H167.039C166.959 15.156 166.664 16.0455 166.153 16.821C165.642 17.5904 164.947 18.1937 164.066 18.6307C163.186 19.0616 162.152 19.277 160.964 19.277ZM172.346 10.6903V19H169.004V0.0909085H172.272V7.22798H172.439C172.771 6.42779 173.285 5.79687 173.981 5.33523C174.682 4.86742 175.575 4.63352 176.658 4.63352C177.643 4.63352 178.502 4.83973 179.234 5.25213C179.967 5.66454 180.533 6.26776 180.933 7.06179C181.339 7.85582 181.542 8.82528 181.542 9.97017V19H178.2V10.4872C178.2 9.53314 177.954 8.79143 177.461 8.26207C176.975 7.72656 176.292 7.45881 175.412 7.45881C174.821 7.45881 174.291 7.58807 173.824 7.84659C173.362 8.09896 172.999 8.4652 172.734 8.94531C172.476 9.42543 172.346 10.0071 172.346 10.6903ZM184.169 24.3182V4.81818H187.456V7.16335H187.65C187.822 6.81865 188.066 6.45241 188.38 6.06463C188.693 5.67069 189.118 5.33523 189.654 5.05824C190.189 4.77509 190.872 4.63352 191.703 4.63352C192.799 4.63352 193.787 4.91359 194.667 5.47372C195.554 6.0277 196.255 6.84943 196.772 7.93892C197.295 9.02225 197.557 10.3518 197.557 11.9276C197.557 13.4848 197.302 14.8082 196.791 15.8977C196.28 16.9872 195.584 17.8182 194.704 18.3906C193.824 18.9631 192.827 19.2493 191.713 19.2493C190.9 19.2493 190.226 19.1139 189.691 18.843C189.155 18.5722 188.724 18.246 188.398 17.8643C188.078 17.4766 187.829 17.1103 187.65 16.7656H187.512V24.3182H184.169ZM187.447 11.9091C187.447 12.8262 187.576 13.6295 187.835 14.3189C188.099 15.0083 188.478 15.5469 188.97 15.9347C189.469 16.3163 190.072 16.5071 190.78 16.5071C191.519 16.5071 192.137 16.3101 192.636 15.9162C193.134 15.5161 193.51 14.9714 193.762 14.282C194.021 13.5864 194.15 12.7955 194.15 11.9091C194.15 11.0289 194.024 10.2472 193.772 9.56392C193.519 8.88068 193.144 8.34517 192.645 7.95739C192.147 7.5696 191.525 7.37571 190.78 7.37571C190.066 7.37571 189.46 7.56345 188.961 7.93892C188.463 8.31439 188.084 8.84067 187.826 9.51776C187.573 10.1948 187.447 10.992 187.447 11.9091ZM199.639 19V4.81818H202.88V7.18182H203.028C203.286 6.36316 203.729 5.73224 204.357 5.28906C204.991 4.83973 205.715 4.61506 206.527 4.61506C206.712 4.61506 206.918 4.62429 207.146 4.64275C207.38 4.65507 207.573 4.67661 207.727 4.70739V7.78196C207.586 7.73272 207.361 7.68963 207.053 7.6527C206.752 7.60961 206.459 7.58807 206.176 7.58807C205.567 7.58807 205.019 7.72041 204.533 7.98508C204.053 8.24361 203.674 8.60369 203.397 9.06534C203.12 9.52699 202.982 10.0594 202.982 10.6626V19H199.639ZM214.77 19.277C213.385 19.277 212.185 18.9723 211.169 18.3629C210.153 17.7536 209.366 16.901 208.805 15.8054C208.252 14.7098 207.975 13.4295 207.975 11.9645C207.975 10.4995 208.252 9.21615 208.805 8.11435C209.366 7.01255 210.153 6.15696 211.169 5.54759C212.185 4.93821 213.385 4.63352 214.77 4.63352C216.155 4.63352 217.355 4.93821 218.371 5.54759C219.386 6.15696 220.171 7.01255 220.725 8.11435C221.285 9.21615 221.565 10.4995 221.565 11.9645C221.565 13.4295 221.285 14.7098 220.725 15.8054C220.171 16.901 219.386 17.7536 218.371 18.3629C217.355 18.9723 216.155 19.277 214.77 19.277ZM214.788 16.5994C215.539 16.5994 216.167 16.3932 216.672 15.9808C217.177 15.5623 217.552 15.0021 217.798 14.3004C218.051 13.5987 218.177 12.817 218.177 11.9553C218.177 11.0874 218.051 10.3026 217.798 9.60085C217.552 8.89299 217.177 8.32978 216.672 7.91122C216.167 7.49266 215.539 7.28338 214.788 7.28338C214.019 7.28338 213.379 7.49266 212.868 7.91122C212.363 8.32978 211.985 8.89299 211.732 9.60085C211.486 10.3026 211.363 11.0874 211.363 11.9553C211.363 12.817 211.486 13.5987 211.732 14.3004C211.985 15.0021 212.363 15.5623 212.868 15.9808C213.379 16.3932 214.019 16.5994 214.788 16.5994Z" fill="#0F172A"/>
</g>
<defs>
<filter id="filter0_d_432_2148" x="39.6367" y="0.0908203" width="181.929" height="24.2275" filterUnits="userSpaceOnUse" color-interpolation-filters="sRGB">
<feFlood flood-opacity="0" result="BackgroundImageFix"/>
<feColorMatrix in="SourceAlpha" type="matrix" values="0 0 0 0 0 0 0 0 0 0 0 0 0 0 0 0 0 0 127 0" result="hardAlpha"/>
<feOffset/>
<feComposite in2="hardAlpha" operator="out"/>
<feColorMatrix type="matrix" values="0 0 0 0 0 0 0 0 0 0 0 0 0 0 0 0 0 0 0.25 0"/>
<feBlend mode="normal" in2="BackgroundImageFix" result="effect1_dropShadow_432_2148"/>
<feBlend mode="normal" in="SourceGraphic" in2="effect1_dropShadow_432_2148" result="shape"/>
</filter>
</defs>
</svg>
