<svg width="179" height="71" viewBox="0 0 179 71" fill="none" xmlns="http://www.w3.org/2000/svg">
<g clip-path="url(#clip0_477_3922)">
<rect width="178.101" height="70.4472" rx="7.83055" fill="#F0F0F0"/>
<path d="M42.4424 44.297V54.3052H44.0408H45.6392V44.297V34.2888H44.0408H42.4424V44.297Z" fill="#1E1E1E"/>
<path d="M83.4268 44.297V54.3052H85.0661H86.7055V50.1058C86.7055 46.1516 86.7137 45.8738 86.8695 45.3918C87.2383 44.2071 88.1564 43.5208 89.4351 43.4555C90.0499 43.431 90.1483 43.4473 90.5581 43.6597C90.9188 43.8476 91.0417 43.962 91.2139 44.297L91.4188 44.6973L91.4434 49.4195L91.468 54.1418H93.0992H94.7385V50.0323C94.7385 47.7039 94.7058 45.6287 94.6566 45.2365C94.4189 43.3493 93.8205 42.1891 92.6483 41.3558C91.9844 40.8819 91.5089 40.694 90.6073 40.5633C89.2958 40.3754 87.8531 40.694 86.976 41.364L86.7055 41.5682V37.9326V34.2888H85.0661H83.4268V44.297Z" fill="#1E1E1E"/>
<path d="M31.2125 35.1876C27.5485 35.9637 24.8763 38.8641 24.1959 42.7857C24.0156 43.8151 24.0812 45.9393 24.3189 46.9523C25.073 50.204 27.237 52.704 30.2289 53.7743C33.4995 54.9344 37.3848 54.0847 39.8029 51.6827C40.1226 51.3559 40.3931 51.07 40.3931 51.0455C40.3931 51.0128 39.9341 50.5389 39.3685 49.9752L38.3439 48.9621L38.0406 49.2481C37.1389 50.1059 36.1553 50.6615 35.0241 50.972C34.4995 51.1108 34.1388 51.1517 33.2208 51.1517C32.147 51.1517 32.0322 51.1354 31.3519 50.8984C30.0404 50.4409 29.0813 49.7138 28.36 48.6272C27.5485 47.418 27.196 46.2089 27.196 44.5994C27.196 43.1696 27.3681 42.369 27.901 41.2906C28.6469 39.7955 29.8436 38.7579 31.442 38.2268C31.9994 38.0389 32.2125 38.0144 33.3027 38.0144C34.3765 38.0062 34.6143 38.0307 35.1471 38.1941C36.27 38.5455 37.0569 39.0111 37.9832 39.869L38.475 40.3265L39.5406 39.2644L40.598 38.2105L40.1472 37.7938C38.9258 36.6827 37.4586 35.8003 36.2209 35.4327C34.7536 34.9997 32.5814 34.8935 31.2125 35.1876Z" fill="#1E1E1E"/>
<path d="M63.3449 38.2921V40.743H62.1563H60.9678V42.2953V43.8476H62.1563H63.3449V49.0764V54.3052H64.9843H66.6237V49.0764V43.8476H67.8122H69.0008V42.2953V40.743H67.8122H66.6237V38.2921V35.8411H64.9843H63.3449V38.2921Z" fill="#1E1E1E"/>
<path d="M75.2301 40.6124C73.6891 40.8984 72.4596 41.5356 71.4431 42.5977C68.9595 45.2039 68.9513 49.4441 71.4186 52.1647C72.6891 53.5536 74.9924 54.436 76.9433 54.2726C78.4925 54.1419 79.7057 53.6598 81.0909 52.6304L81.8615 52.0585L80.7385 50.9392L79.6237 49.8118L79.3696 50.0487C78.4351 50.9392 76.8941 51.3722 75.6236 51.1108C73.1645 50.5961 71.935 47.6876 73.1563 45.2856C73.9842 43.6598 76.3039 42.9735 78.2056 43.7824C78.4351 43.8804 78.8614 44.1582 79.1319 44.3869L79.6319 44.8118L80.7303 43.7987C81.3369 43.2431 81.8205 42.7693 81.8123 42.7366C81.8041 42.7121 81.4516 42.4343 81.0336 42.1157C80.1319 41.4376 79.1975 40.9719 78.2958 40.7431C77.4597 40.5225 76.0498 40.4654 75.2301 40.6124Z" fill="#1E1E1E"/>
<path d="M48.0977 44.9016C48.0977 49.395 48.1386 49.9097 48.5485 51.0045C49.1141 52.5078 50.4256 53.7169 51.9256 54.1009C53.5486 54.5258 55.6388 54.199 56.7454 53.3575L57.0323 53.145V53.7251V54.3052H58.6307H60.2291V47.5241V40.743H58.6389H57.0405L57.0159 44.7218C56.975 49.1499 56.975 49.1908 56.4094 50.0241C55.9749 50.6695 55.352 51.0454 54.4175 51.2496C53.7126 51.3967 53.3929 51.3967 52.8601 51.2333C52.2617 51.0617 51.7863 50.5715 51.5404 49.8852C51.3436 49.3624 51.3436 49.3297 51.3109 45.0486L51.2863 40.743H49.6879H48.0977V44.9016Z" fill="#1E1E1E"/>
<path d="M75.5169 45.3588C74.6563 45.7101 74.1562 46.4617 74.1562 47.4013C74.1562 48.684 75.0743 49.5908 76.3776 49.5908C78.3941 49.5908 79.3449 47.1235 77.8449 45.7755C77.1399 45.1382 76.3858 45.0075 75.5169 45.3588Z" fill="#F6A114"/>
<path d="M24.7513 25.6802V19.686H26.8879C27.3523 19.686 27.7377 19.766 28.044 19.926C28.3523 20.086 28.5826 20.3074 28.7348 20.5904C28.887 20.8713 28.9631 21.1962 28.9631 21.565C28.9631 21.9318 28.886 22.2548 28.7319 22.5338C28.5797 22.8109 28.3494 23.0265 28.0411 23.1806C27.7348 23.3348 27.3494 23.4119 26.885 23.4119H25.2664V22.6333H26.803C27.0957 22.6333 27.3338 22.5914 27.5172 22.5075C27.7026 22.4236 27.8382 22.3016 27.924 22.1416C28.0099 21.9816 28.0528 21.7894 28.0528 21.565C28.0528 21.3387 28.0089 21.1426 27.9211 20.9767C27.8353 20.8109 27.6996 20.684 27.5143 20.5962C27.3309 20.5065 27.0899 20.4616 26.7913 20.4616H25.6557V25.6802H24.7513ZM27.7104 22.9758L29.1914 25.6802H28.1611L26.7094 22.9758H27.7104ZM30.0636 25.6802V19.686H33.8217V20.4645H30.968V22.2909H33.6256V23.0665H30.968V24.9016H33.8568V25.6802H30.0636ZM35.5536 19.686L37.2219 24.568H37.2893L38.9576 19.686H39.9352L37.7781 25.6802H36.7332L34.5761 19.686H35.5536ZM41.7052 19.686V25.6802H40.8008V19.686H41.7052ZM43.0223 25.6802V19.686H46.7804V20.4645H43.9267V22.2909H46.5843V23.0665H43.9267V24.9016H46.8155V25.6802H43.0223ZM49.1621 25.6802L47.4996 19.686H48.4509L49.6187 24.328H49.6743L50.8889 19.686H51.8314L53.046 24.3309H53.1016L54.2665 19.686H55.2207L53.5553 25.6802H52.6451L51.3836 21.1904H51.3367L50.0753 25.6802H49.1621ZM56.0453 25.6802V19.686H59.8034V20.4645H56.9497V22.2909H59.6073V23.0665H56.9497V24.9016H59.8386V25.6802H56.0453ZM62.952 25.6802H61.0115V19.686H63.0135C63.6008 19.686 64.1052 19.806 64.5267 20.046C64.9481 20.284 65.2711 20.6265 65.4954 21.0733C65.7218 21.5182 65.835 22.0518 65.835 22.6743C65.835 23.2987 65.7208 23.8353 65.4925 24.2841C65.2662 24.7328 64.9384 25.0782 64.5091 25.3202C64.0798 25.5602 63.5608 25.6802 62.952 25.6802ZM61.9159 24.8899H62.9022C63.3588 24.8899 63.7384 24.8041 64.0408 24.6324C64.3432 24.4587 64.5696 24.208 64.7198 23.8802C64.8701 23.5504 64.9452 23.1484 64.9452 22.6743C64.9452 22.204 64.8701 21.805 64.7198 21.4772C64.5715 21.1494 64.3501 20.9006 64.0554 20.7309C63.7608 20.5611 63.3949 20.4762 62.9579 20.4762H61.9159V24.8899ZM74.3477 22.6831C74.3477 23.3231 74.2307 23.8733 73.9965 24.3338C73.7624 24.7924 73.4414 25.1455 73.0336 25.3933C72.6277 25.6392 72.1663 25.7621 71.6492 25.7621C71.1301 25.7621 70.6667 25.6392 70.2589 25.3933C69.8531 25.1455 69.5331 24.7914 69.2989 24.3309C69.0648 23.8704 68.9477 23.3211 68.9477 22.6831C68.9477 22.0431 69.0648 21.4938 69.2989 21.0352C69.5331 20.5748 69.8531 20.2216 70.2589 19.9757C70.6667 19.7279 71.1301 19.604 71.6492 19.604C72.1663 19.604 72.6277 19.7279 73.0336 19.9757C73.4414 20.2216 73.7624 20.5748 73.9965 21.0352C74.2307 21.4938 74.3477 22.0431 74.3477 22.6831ZM73.4521 22.6831C73.4521 22.1953 73.3731 21.7845 73.215 21.4509C73.0589 21.1152 72.8443 20.8616 72.5711 20.6899C72.2999 20.5162 71.9926 20.4294 71.6492 20.4294C71.3038 20.4294 70.9955 20.5162 70.7243 20.6899C70.4531 20.8616 70.2384 21.1152 70.0804 21.4509C69.9243 21.7845 69.8462 22.1953 69.8462 22.6831C69.8462 23.1709 69.9243 23.5826 70.0804 23.9182C70.2384 24.2519 70.4531 24.5055 70.7243 24.6792C70.9955 24.8509 71.3038 24.9368 71.6492 24.9368C71.9926 24.9368 72.2999 24.8509 72.5711 24.6792C72.8443 24.5055 73.0589 24.2519 73.215 23.9182C73.3731 23.5826 73.4521 23.1709 73.4521 22.6831ZM80.3134 19.686V25.6802H79.4822L76.4353 21.284H76.3797V25.6802H75.4753V19.686H76.3124L79.3622 24.088H79.4178V19.686H80.3134Z" fill="#1E1E1E"/>
<path d="M113.256 45.5888V51.583H112.349V46.4961H112.314L110.88 47.4327V46.5664L112.375 45.5888H113.256ZM116.971 51.665C116.703 51.6611 116.44 51.6123 116.18 51.5186C115.923 51.425 115.689 51.2689 115.478 51.0503C115.267 50.8318 115.098 50.5381 114.971 50.1693C114.847 49.8005 114.784 49.3401 114.784 48.7879C114.784 48.2649 114.836 47.8005 114.939 47.3947C115.045 46.9888 115.196 46.6464 115.393 46.3673C115.59 46.0864 115.828 45.8727 116.107 45.7264C116.386 45.58 116.699 45.5068 117.047 45.5068C117.404 45.5068 117.721 45.5771 117.998 45.7176C118.275 45.8581 118.499 46.0522 118.671 46.3C118.845 46.5478 118.955 46.8298 119.002 47.1459H118.109C118.049 46.8961 117.929 46.6922 117.749 46.5342C117.57 46.3761 117.335 46.2971 117.047 46.2971C116.608 46.2971 116.265 46.4883 116.019 46.8708C115.775 47.2532 115.652 47.7849 115.65 48.4659H115.694C115.798 48.2961 115.925 48.1517 116.075 48.0327C116.227 47.9117 116.397 47.8191 116.584 47.7547C116.773 47.6883 116.972 47.6552 117.181 47.6552C117.529 47.6552 117.843 47.74 118.124 47.9098C118.407 48.0776 118.632 48.3098 118.8 48.6064C118.968 48.903 119.052 49.2425 119.052 49.6249C119.052 50.0074 118.965 50.3537 118.791 50.664C118.619 50.9742 118.377 51.2201 118.065 51.4015C117.753 51.5811 117.388 51.6689 116.971 51.665ZM116.968 50.904C117.198 50.904 117.404 50.8474 117.585 50.7342C117.767 50.621 117.91 50.4688 118.015 50.2776C118.121 50.0864 118.173 49.8727 118.173 49.6366C118.173 49.4064 118.122 49.1966 118.018 49.0074C117.917 48.8181 117.776 48.6679 117.597 48.5566C117.419 48.4454 117.216 48.3898 116.988 48.3898C116.814 48.3898 116.653 48.423 116.505 48.4893C116.359 48.5557 116.23 48.6474 116.119 48.7644C116.008 48.8815 115.92 49.0161 115.855 49.1683C115.793 49.3186 115.762 49.4776 115.762 49.6454C115.762 49.8698 115.813 50.0776 115.917 50.2688C116.022 50.4601 116.166 50.6142 116.347 50.7313C116.53 50.8464 116.737 50.904 116.968 50.904ZM122.381 51.583V45.5888H124.517C124.982 45.5888 125.367 45.6688 125.674 45.8288C125.982 45.9888 126.212 46.2103 126.364 46.4932C126.516 46.7742 126.593 47.0991 126.593 47.4678C126.593 47.8347 126.515 48.1576 126.361 48.4366C126.209 48.7137 125.979 48.9293 125.671 49.0835C125.364 49.2376 124.979 49.3147 124.514 49.3147H122.896V48.5361H124.433C124.725 48.5361 124.963 48.4942 125.147 48.4103C125.332 48.3264 125.468 48.2044 125.554 48.0444C125.639 47.8844 125.682 47.6922 125.682 47.4678C125.682 47.2415 125.638 47.0454 125.551 46.8795C125.465 46.7137 125.329 46.5869 125.144 46.499C124.96 46.4093 124.719 46.3644 124.421 46.3644H123.285V51.583H122.381ZM125.34 48.8786L126.821 51.583H125.791L124.339 48.8786H125.34ZM129.504 51.6737C129.061 51.6737 128.68 51.5791 128.36 51.3898C128.042 51.1986 127.796 50.9303 127.622 50.5849C127.45 50.2376 127.365 49.8308 127.365 49.3644C127.365 48.904 127.45 48.4981 127.622 48.1469C127.796 47.7956 128.038 47.5215 128.348 47.3244C128.66 47.1273 129.025 47.0288 129.443 47.0288C129.696 47.0288 129.942 47.0708 130.18 47.1547C130.418 47.2386 130.632 47.3703 130.821 47.5498C131.01 47.7293 131.16 47.9625 131.269 48.2493C131.378 48.5342 131.433 48.8805 131.433 49.2883V49.5986H127.859V48.943H130.575C130.575 48.7127 130.528 48.5088 130.435 48.3313C130.341 48.1517 130.209 48.0103 130.04 47.9069C129.872 47.8035 129.675 47.7517 129.448 47.7517C129.203 47.7517 128.988 47.8122 128.805 47.9332C128.623 48.0522 128.483 48.2083 128.383 48.4015C128.286 48.5927 128.237 48.8005 128.237 49.0249V49.5371C128.237 49.8376 128.289 50.0932 128.395 50.304C128.502 50.5147 128.651 50.6757 128.843 50.7869C129.034 50.8962 129.257 50.9508 129.513 50.9508C129.679 50.9508 129.83 50.9274 129.967 50.8806C130.103 50.8318 130.221 50.7596 130.321 50.664C130.42 50.5684 130.496 50.4503 130.549 50.3098L131.377 50.4591C131.311 50.703 131.192 50.9167 131.02 51.1001C130.85 51.2815 130.637 51.423 130.379 51.5245C130.124 51.624 129.832 51.6737 129.504 51.6737ZM136.121 47.0873L134.491 51.583H133.554L131.921 47.0873H132.86L133.999 50.5469H134.046L135.181 47.0873H136.121ZM136.943 51.583V47.0873H137.819V51.583H136.943ZM137.385 46.3937C137.233 46.3937 137.102 46.3429 136.993 46.2415C136.886 46.1381 136.832 46.0151 136.832 45.8727C136.832 45.7283 136.886 45.6054 136.993 45.5039C137.102 45.4005 137.233 45.3488 137.385 45.3488C137.538 45.3488 137.667 45.4005 137.775 45.5039C137.884 45.6054 137.939 45.7283 137.939 45.8727C137.939 46.0151 137.884 46.1381 137.775 46.2415C137.667 46.3429 137.538 46.3937 137.385 46.3937ZM140.933 51.6737C140.491 51.6737 140.109 51.5791 139.789 51.3898C139.471 51.1986 139.225 50.9303 139.051 50.5849C138.88 50.2376 138.794 49.8308 138.794 49.3644C138.794 48.904 138.88 48.4981 139.051 48.1469C139.225 47.7956 139.467 47.5215 139.777 47.3244C140.09 47.1273 140.454 47.0288 140.872 47.0288C141.126 47.0288 141.372 47.0708 141.61 47.1547C141.848 47.2386 142.061 47.3703 142.251 47.5498C142.44 47.7293 142.589 47.9625 142.698 48.2493C142.808 48.5342 142.862 48.8805 142.862 49.2883V49.5986H139.289V48.943H142.005C142.005 48.7127 141.958 48.5088 141.864 48.3313C141.771 48.1517 141.639 48.0103 141.469 47.9069C141.301 47.8035 141.104 47.7517 140.878 47.7517C140.632 47.7517 140.417 47.8122 140.234 47.9332C140.052 48.0522 139.912 48.2083 139.812 48.4015C139.715 48.5927 139.666 48.8005 139.666 49.0249V49.5371C139.666 49.8376 139.719 50.0932 139.824 50.304C139.931 50.5147 140.081 50.6757 140.272 50.7869C140.463 50.8962 140.687 50.9508 140.942 50.9508C141.108 50.9508 141.259 50.9274 141.396 50.8806C141.532 50.8318 141.651 50.7596 141.75 50.664C141.85 50.5684 141.926 50.4503 141.978 50.3098L142.807 50.4591C142.74 50.703 142.621 50.9167 142.45 51.1001C142.28 51.2815 142.066 51.423 141.809 51.5245C141.553 51.624 141.261 51.6737 140.933 51.6737ZM144.8 51.583L143.477 47.0873H144.381L145.262 50.3888H145.306L146.19 47.0873H147.095L147.973 50.3742H148.016L148.892 47.0873H149.796L148.476 51.583H147.583L146.67 48.3371H146.603L145.69 51.583H144.8ZM153.995 48.1849L153.202 48.3254C153.169 48.2239 153.116 48.1274 153.044 48.0356C152.974 47.9439 152.878 47.8688 152.757 47.8103C152.636 47.7517 152.485 47.7225 152.304 47.7225C152.056 47.7225 151.849 47.7781 151.683 47.8893C151.517 47.9986 151.434 48.14 151.434 48.3137C151.434 48.4639 151.49 48.5849 151.601 48.6766C151.712 48.7683 151.892 48.8435 152.14 48.902L152.854 49.0659C153.268 49.1615 153.576 49.3088 153.779 49.5079C153.982 49.7069 154.083 49.9654 154.083 50.2835C154.083 50.5528 154.005 50.7928 153.849 51.0035C153.695 51.2123 153.479 51.3762 153.202 51.4952C152.927 51.6142 152.608 51.6737 152.245 51.6737C151.742 51.6737 151.331 51.5664 151.013 51.3518C150.695 51.1352 150.5 50.8279 150.427 50.4298L151.273 50.301C151.326 50.5215 151.434 50.6884 151.598 50.8015C151.762 50.9128 151.976 50.9684 152.239 50.9684C152.526 50.9684 152.755 50.9089 152.927 50.7898C153.099 50.6689 153.185 50.5215 153.185 50.3479C153.185 50.2074 153.132 50.0893 153.027 49.9937C152.923 49.8981 152.764 49.8259 152.549 49.7771L151.788 49.6103C151.369 49.5147 151.059 49.3625 150.858 49.1537C150.659 48.9449 150.559 48.6805 150.559 48.3605C150.559 48.0952 150.633 47.863 150.782 47.6639C150.93 47.4649 151.135 47.3098 151.396 47.1986C151.658 47.0854 151.957 47.0288 152.295 47.0288C152.781 47.0288 153.163 47.1342 153.442 47.3449C153.721 47.5537 153.906 47.8337 153.995 48.1849Z" fill="#1E1E1E"/>
<path d="M101.803 17.8574L102.861 21.1118H106.283L103.514 23.1231L104.572 26.3775L101.803 24.3661L99.0352 26.3775L100.093 23.1231L97.3243 21.1118H100.746L101.803 17.8574Z" fill="#EF4335"/>
<path d="M113.578 17.8574L114.635 21.1118H118.057L115.289 23.1231L116.346 26.3775L113.578 24.3661L110.81 26.3775L111.867 23.1231L109.099 21.1118H112.52L113.578 17.8574Z" fill="#EF4335"/>
<path d="M125.352 17.8574L126.41 21.1118H129.832L127.063 23.1231L128.121 26.3775L125.352 24.3661L122.584 26.3775L123.641 23.1231L120.873 21.1118H124.295L125.352 17.8574Z" fill="#EF4335"/>
<path d="M137.127 17.8574L138.184 21.1118H141.606L138.838 23.1231L139.895 26.3775L137.127 24.3661L134.358 26.3775L135.416 23.1231L132.648 21.1118H136.069L137.127 17.8574Z" fill="#EF4335"/>
<path d="M148.901 17.8574L149.959 21.1118H153.38L150.612 23.1231L151.669 26.3775L148.901 24.3661L146.133 26.3775L147.19 23.1231L144.422 21.1118H147.844L148.901 17.8574Z" fill="#EF4335"/>
</g>
<defs>
<clipPath id="clip0_477_3922">
<rect width="178.101" height="70.4472" rx="7.83055" fill="white"/>
</clipPath>
</defs>
</svg>
